<svg width="1561" height="697" viewBox="0 0 1561 697" fill="none" xmlns="http://www.w3.org/2000/svg">
<path d="M471.308 473.446L489.171 529.597H489.857L507.756 473.446H525.078L499.601 547.352H479.464L453.951 473.446H471.308ZM547.049 547.352H530.305L555.818 473.446H575.954L601.432 547.352H584.687L566.174 490.335H565.597L547.049 547.352ZM546.002 518.302H585.554V530.499H546.002V518.302ZM646.688 547.352H620.489V473.446H646.904C654.338 473.446 660.738 474.926 666.103 477.885C671.467 480.82 675.593 485.042 678.48 490.552C681.391 496.061 682.846 502.652 682.846 510.327C682.846 518.025 681.391 524.641 678.48 530.175C675.593 535.707 671.443 539.954 666.03 542.913C660.641 545.872 654.194 547.352 646.688 547.352ZM636.114 533.963H646.038C650.657 533.963 654.543 533.146 657.694 531.509C660.87 529.849 663.251 527.287 664.839 523.823C666.451 520.335 667.257 515.836 667.257 510.327C667.257 504.865 666.451 500.403 664.839 496.939C663.251 493.474 660.882 490.924 657.73 489.288C654.578 487.653 650.693 486.835 646.074 486.835H636.114V533.963ZM772.498 510.399C772.498 518.458 770.97 525.315 767.916 530.969C764.884 536.622 760.746 540.94 755.502 543.923C750.28 546.882 744.41 548.362 737.891 548.362C731.324 548.362 725.429 546.871 720.209 543.888C714.988 540.904 710.863 536.586 707.831 530.932C704.8 525.279 703.284 518.434 703.284 510.399C703.284 502.339 704.8 495.483 707.831 489.83C710.863 484.176 714.988 479.87 720.209 476.911C725.429 473.928 731.324 472.436 737.891 472.436C744.41 472.436 750.28 473.928 755.502 476.911C760.746 479.87 764.884 484.176 767.916 489.83C770.97 495.483 772.498 502.339 772.498 510.399ZM756.656 510.399C756.656 505.178 755.874 500.776 754.311 497.191C752.771 493.606 750.593 490.888 747.779 489.035C744.964 487.183 741.668 486.257 737.891 486.257C734.114 486.257 730.818 487.183 728.003 489.035C725.188 490.888 722.999 493.606 721.436 497.191C719.896 500.776 719.126 505.178 719.126 510.399C719.126 515.619 719.896 520.022 721.436 523.606C722.999 527.191 725.188 529.909 728.003 531.762C730.818 533.614 734.114 534.541 737.891 534.541C741.668 534.541 744.964 533.614 747.779 531.762C750.593 529.909 752.771 527.191 754.311 523.606C755.874 520.022 756.656 515.619 756.656 510.399ZM820.434 547.352H794.235V473.446H820.651C828.084 473.446 834.484 474.926 839.848 477.885C845.213 480.82 849.339 485.042 852.227 490.552C855.137 496.061 856.592 502.652 856.592 510.327C856.592 518.025 855.137 524.641 852.227 530.175C849.339 535.707 845.19 539.954 839.776 542.913C834.387 545.872 827.94 547.352 820.434 547.352ZM809.86 533.963H819.785C824.403 533.963 828.288 533.146 831.44 531.509C834.616 529.849 836.997 527.287 838.586 523.823C840.197 520.335 841.003 515.836 841.003 510.327C841.003 504.865 840.197 500.403 838.586 496.939C836.997 493.474 834.628 490.924 831.476 489.288C828.325 487.653 824.439 486.835 819.82 486.835H809.86V533.963ZM886.9 547.352H870.156L895.669 473.446H915.806L941.287 547.352H924.538L906.026 490.335H905.448L886.9 547.352ZM885.853 518.302H925.405V530.499H885.853V518.302ZM960.341 547.352V473.446H989.499C995.075 473.446 999.846 474.444 1003.79 476.441C1007.76 478.414 1010.77 481.217 1012.85 484.849C1014.94 488.458 1015.99 492.705 1015.99 497.589C1015.99 502.496 1014.93 506.718 1012.81 510.254C1010.69 513.767 1007.62 516.462 1003.6 518.338C999.611 520.215 994.775 521.153 989.105 521.153H969.582V508.595H986.574C989.555 508.595 992.039 508.186 994.007 507.368C995.984 506.549 997.446 505.323 998.412 503.687C999.396 502.051 999.893 500.018 999.893 497.589C999.893 495.134 999.396 493.065 998.412 491.381C997.446 489.697 995.966 488.422 993.969 487.556C992.001 486.666 989.508 486.221 986.499 486.221H975.965V547.352H960.341ZM1000.25 513.719L1018.62 547.352H1001.37L983.397 513.719H1000.25ZM1049.93 547.352H1033.18L1058.7 473.446H1078.84L1104.31 547.352H1087.56L1069.05 490.335H1068.48L1049.93 547.352ZM1048.88 518.302H1088.43V530.499H1048.88V518.302Z" fill="#FF9900"/>
<path d="M693.392 85.0978C693.392 89.9196 693.913 93.8288 694.825 96.6959C695.868 99.5629 697.171 102.691 698.995 106.079C699.648 107.122 699.908 108.164 699.908 109.076C699.908 110.38 699.125 111.682 697.432 112.986L689.222 118.459C688.049 119.241 686.876 119.632 685.833 119.632C684.531 119.632 683.227 118.981 681.924 117.807C680.099 115.853 678.536 113.768 677.232 111.682C675.93 109.467 674.626 106.992 673.193 103.994C663.027 115.984 650.256 121.978 634.879 121.978C623.932 121.978 615.201 118.851 608.815 112.595C602.43 106.339 599.172 97.9996 599.172 87.5738C599.172 76.4968 603.081 67.5048 611.031 60.7282C618.981 53.9517 629.536 50.5634 642.959 50.5634C647.389 50.5634 651.951 50.9544 656.772 51.606C661.594 52.2576 666.547 53.3002 671.759 54.473V44.9598C671.759 35.0556 669.674 28.1487 665.634 24.1088C661.464 20.069 654.427 18.1142 644.392 18.1142C639.831 18.1142 635.14 18.6355 630.318 19.8084C625.496 20.9812 620.804 22.4148 616.244 24.2392C614.158 25.1514 612.595 25.6727 611.682 25.9333C610.77 26.1939 610.119 26.3243 609.598 26.3243C607.773 26.3243 606.861 25.0211 606.861 22.2844V15.8988C606.861 13.8137 607.122 12.2499 607.773 11.3377C608.424 10.4255 609.598 9.51325 611.422 8.601C615.983 6.25527 621.457 4.3005 627.842 2.73668C634.228 1.04255 641.004 0.260636 648.171 0.260636C663.68 0.260636 675.017 3.77923 682.315 10.8164C689.482 17.8535 693.131 28.5397 693.131 42.8747V85.0978H693.392ZM640.483 104.906C644.783 104.906 649.214 104.125 653.905 102.56C658.597 100.997 662.767 98.1299 666.285 94.2197C668.371 91.744 669.935 89.0073 670.717 85.8797C671.498 82.7521 672.019 78.9728 672.019 74.542V69.0686C668.24 68.1564 664.201 67.3745 660.03 66.8532C655.86 66.3319 651.821 66.0713 647.78 66.0713C639.049 66.0713 632.663 67.7655 628.363 71.284C624.062 74.8026 621.978 79.7547 621.978 86.2706C621.978 92.3956 623.541 96.9564 626.799 100.084C629.927 103.342 634.488 104.906 640.483 104.906ZM745.128 118.981C742.782 118.981 741.218 118.59 740.176 117.677C739.134 116.895 738.221 115.071 737.439 112.595L706.815 11.859C706.033 9.25259 705.642 7.55846 705.642 6.64622C705.642 4.56114 706.684 3.38827 708.77 3.38827H721.541C724.017 3.38827 725.71 3.77923 726.623 4.69145C727.666 5.47336 728.447 7.29782 729.229 9.7739L751.123 96.0445L771.453 9.7739C772.104 7.1675 772.886 5.47336 773.928 4.69145C774.971 3.90954 776.795 3.38827 779.141 3.38827H789.567C792.042 3.38827 793.737 3.77923 794.779 4.69145C795.822 5.47336 796.734 7.29782 797.255 9.7739L817.846 97.0867L840.39 9.7739C841.173 7.1675 842.085 5.47336 842.996 4.69145C844.04 3.90954 845.733 3.38827 848.079 3.38827H860.199C862.284 3.38827 863.457 4.43082 863.457 6.64622C863.457 7.29782 863.326 7.94941 863.196 8.73132C863.066 9.51325 862.805 10.5558 862.284 11.9893L830.877 112.726C830.095 115.331 829.183 117.026 828.14 117.807C827.098 118.59 825.403 119.111 823.189 119.111H811.981C809.505 119.111 807.811 118.72 806.768 117.807C805.726 116.895 804.814 115.201 804.292 112.595L784.093 28.5397L764.024 112.464C763.373 115.071 762.591 116.765 761.548 117.677C760.506 118.59 758.681 118.981 756.335 118.981H745.128ZM912.587 122.499C905.81 122.499 899.034 121.718 892.518 120.153C886.002 118.59 880.919 116.895 877.531 114.94C875.446 113.768 874.013 112.464 873.492 111.292C872.97 110.119 872.709 108.815 872.709 107.643V100.997C872.709 98.2601 873.752 96.9564 875.706 96.9564C876.489 96.9564 877.271 97.0867 878.052 97.3473C878.834 97.6088 880.007 98.1299 881.31 98.651C885.742 100.606 890.563 102.169 895.645 103.212C900.858 104.255 905.94 104.776 911.153 104.776C919.363 104.776 925.749 103.342 930.179 100.475C934.61 97.6088 936.956 93.4381 936.956 88.095C936.956 84.4461 935.783 81.4488 933.437 78.9728C931.092 76.4968 926.661 74.2813 920.275 72.1963L901.379 66.3319C891.866 63.3346 884.829 58.9038 880.529 53.0395C876.228 47.3055 874.013 40.9199 874.013 34.1434C874.013 28.67 875.185 23.8482 877.531 19.6781C879.877 15.5079 883.005 11.859 886.914 8.99196C890.823 5.99464 895.255 3.77923 900.467 2.21541C905.68 0.651591 911.153 0 916.887 0C919.754 0 922.752 0.130318 925.619 0.521273C928.616 0.912227 931.353 1.4335 934.089 1.95477C936.696 2.60636 939.171 3.25796 941.514 4.03987C943.867 4.82178 945.685 5.60368 946.988 6.38559C948.815 7.42813 950.118 8.47068 950.896 9.64353C951.683 10.6861 952.077 12.1196 952.077 13.944V20.069C952.077 22.8057 951.027 24.2392 949.078 24.2392C948.037 24.2392 946.341 23.7179 944.12 22.6754C936.696 19.2871 928.355 17.593 919.103 17.593C911.674 17.593 905.81 18.7659 901.77 21.2419C897.731 23.7179 895.645 27.4972 895.645 32.8401C895.645 36.4891 896.948 39.6167 899.555 42.0927C902.161 44.5689 906.983 47.0449 913.89 49.2603L932.395 55.1246C941.777 58.1219 948.553 62.2921 952.592 67.6351C956.632 72.9782 958.591 79.1032 958.591 85.8797C958.591 91.4834 957.419 96.5656 955.198 100.997C952.855 105.427 949.725 109.337 945.685 112.464C941.645 115.723 936.826 118.068 931.222 119.762C925.358 121.587 919.233 122.499 912.587 122.499Z" fill="white"/>
<path fill-rule="evenodd" clip-rule="evenodd" d="M937.213 185.835C894.338 217.502 832.046 234.313 778.486 234.313C703.423 234.313 635.787 206.556 584.702 160.422C580.663 156.774 584.312 151.821 589.134 154.688C644.388 186.747 712.545 206.165 783.046 206.165C830.612 206.165 882.87 196.26 930.957 175.931C938.127 172.672 944.247 180.622 937.213 185.835Z" fill="#FF9900"/>
<path fill-rule="evenodd" clip-rule="evenodd" d="M955.059 165.504C949.585 158.466 918.833 162.116 904.89 163.81C900.719 164.331 900.068 160.682 903.847 157.945C928.347 140.743 968.611 145.695 973.307 151.43C978.003 157.294 972.004 197.562 949.07 216.849C945.546 219.847 942.162 218.282 943.728 214.373C948.939 201.472 960.532 172.411 955.059 165.504Z" fill="#FF9900"/>
<path d="M151.227 332.053H125.715C125.249 328.753 124.298 325.821 122.861 323.258C121.424 320.656 119.58 318.443 117.328 316.618C115.075 314.793 112.475 313.395 109.523 312.424C106.611 311.454 103.446 310.969 100.029 310.969C93.8552 310.969 88.4771 312.502 83.8952 315.569C79.3133 318.599 75.7603 323.025 73.2364 328.849C70.7124 334.635 69.4504 341.663 69.4504 349.935C69.4504 358.438 70.7124 365.583 73.2364 371.369C75.7992 377.154 79.3715 381.523 83.9535 384.474C88.5354 387.425 93.8355 388.901 99.8545 388.901C103.232 388.901 106.358 388.454 109.232 387.56C112.144 386.667 114.726 385.366 116.978 383.659C119.23 381.911 121.094 379.794 122.57 377.31C124.084 374.824 125.133 371.99 125.715 368.806L151.227 368.922C150.566 374.397 148.917 379.678 146.275 384.765C143.674 389.813 140.16 394.337 135.733 398.336C131.345 402.297 126.103 405.442 120.007 407.772C113.95 410.063 107.096 411.208 99.4468 411.208C88.8072 411.208 79.2939 408.8 70.9065 403.986C62.5581 399.171 55.957 392.201 51.1032 383.076C46.2883 373.951 43.8809 362.903 43.8809 349.935C43.8809 336.927 46.3272 325.86 51.2197 316.734C56.1123 307.609 62.7522 300.659 71.1396 295.883C79.5268 291.068 88.9625 288.66 99.4468 288.66C106.358 288.66 112.765 289.631 118.668 291.572C124.608 293.514 129.87 296.348 134.452 300.077C139.034 303.765 142.762 308.289 145.635 313.647C148.547 319.006 150.411 325.142 151.227 332.053ZM282.209 349.935C282.209 362.943 279.743 374.009 274.812 383.134C269.92 392.259 263.241 399.229 254.776 404.044C246.35 408.82 236.875 411.208 226.352 411.208C215.752 411.208 206.239 408.8 197.812 403.986C189.386 399.171 182.727 392.201 177.834 383.076C172.941 373.951 170.495 362.903 170.495 349.935C170.495 336.927 172.941 325.86 177.834 316.734C182.727 307.609 189.386 300.659 197.812 295.883C206.239 291.068 215.752 288.66 226.352 288.66C236.875 288.66 246.35 291.068 254.776 295.883C263.241 300.659 269.92 307.609 274.812 316.734C279.743 325.86 282.209 336.927 282.209 349.935ZM256.64 349.935C256.64 341.508 255.377 334.403 252.853 328.617C250.369 322.831 246.854 318.443 242.311 315.453C237.768 312.463 232.449 310.969 226.352 310.969C220.256 310.969 214.936 312.463 210.393 315.453C205.85 318.443 202.316 322.831 199.792 328.617C197.308 334.403 196.065 341.508 196.065 349.935C196.065 358.36 197.308 365.467 199.792 371.252C202.316 377.038 205.85 381.425 210.393 384.415C214.936 387.406 220.256 388.901 226.352 388.901C232.449 388.901 237.768 387.406 242.311 384.415C246.854 381.425 250.369 377.038 252.853 371.252C255.377 365.467 256.64 358.36 256.64 349.935ZM304.171 290.291H335.275L368.125 370.437H369.523L402.373 290.291H433.476V409.577H409.013V331.937H408.023L377.153 408.995H360.494L329.625 331.645H328.635V409.577H304.171V290.291ZM457.535 290.291H488.638L521.488 370.437H522.886L555.736 290.291H586.839V409.577H562.376V331.937H561.386L530.517 408.995H513.858L482.988 331.645H481.998V409.577H457.535V290.291ZM684.578 290.291H709.799V367.757C709.799 376.455 707.721 384.066 703.566 390.59C699.451 397.113 693.685 402.199 686.267 405.85C678.851 409.461 670.211 411.266 660.349 411.266C650.447 411.266 641.787 409.461 634.371 405.85C626.955 402.199 621.189 397.113 617.072 390.59C612.957 384.066 610.899 376.455 610.899 367.757V290.291H636.119V365.603C636.119 370.145 637.109 374.184 639.089 377.717C641.108 381.251 643.943 384.027 647.593 386.046C651.243 388.066 655.495 389.075 660.349 389.075C665.241 389.075 669.493 388.066 673.105 386.046C676.754 384.027 679.57 381.251 681.55 377.717C683.569 374.184 684.578 370.145 684.578 365.603V290.291ZM833.602 290.291V409.577H811.819L759.923 334.499H759.049V409.577H733.829V290.291H755.962L807.45 365.311H808.499V290.291H833.602ZM882.94 290.291V409.577H857.721V290.291H882.94ZM902.427 311.085V290.291H1000.39V311.085H963.878V409.577H938.947V311.085H902.427ZM1012.82 290.291H1041.07L1068.27 341.663H1069.43L1096.64 290.291H1124.89L1081.37 367.408V409.577H1056.33V367.408L1012.82 290.291ZM1225.46 409.577H1183.18V290.291H1225.82C1237.82 290.291 1248.14 292.679 1256.8 297.455C1265.46 302.193 1272.12 309.007 1276.78 317.899C1281.48 326.791 1283.83 337.431 1283.83 349.817C1283.83 362.243 1281.48 372.922 1276.78 381.853C1272.12 390.784 1265.43 397.637 1256.68 402.413C1247.99 407.189 1237.58 409.577 1225.46 409.577ZM1208.41 387.968H1224.42C1231.87 387.968 1238.14 386.648 1243.23 384.007C1248.36 381.329 1252.2 377.193 1254.76 371.602C1257.37 365.971 1258.67 358.71 1258.67 349.817C1258.67 341.004 1257.37 333.801 1254.76 328.209C1252.2 322.618 1248.38 318.501 1243.29 315.861C1238.2 313.221 1231.93 311.9 1224.48 311.9H1208.41V387.968ZM1319.63 409.577H1292.6L1333.78 290.291H1366.28L1407.4 409.577H1380.37L1350.49 317.55H1349.56L1319.63 409.577ZM1317.93 362.69H1381.77V382.377H1317.93V362.69ZM1405.87 290.291H1434.12L1461.32 341.663H1462.49L1489.69 290.291H1517.94L1474.43 367.408V409.577H1449.38V367.408L1405.87 290.291Z" fill="white"/>
<path d="M-0.00195312 511.736H438.629" stroke="white" stroke-width="6.56073"/>
<path d="M1121.88 511.738H1560.52" stroke="white" stroke-width="6.56073"/>
</svg>
